<?xml version="1.0" encoding="UTF-8" standalone="no" ?>
<!DOCTYPE svg PUBLIC "-//W3C//DTD SVG 1.1//EN" "http://www.w3.org/Graphics/SVG/1.1/DTD/svg11.dtd">
<svg xmlns="http://www.w3.org/2000/svg" xmlns:xlink="http://www.w3.org/1999/xlink" version="1.1" width="500" height="500" viewBox="0 0 500 500" xml:space="preserve">
<desc>Created with Fabric.js 3.6.3</desc>
<defs>
</defs>
<g transform="matrix(1.1802759027282475 -2.8908e-16 2.8908e-16 1.1802759027282475 150.11234817429022 250.61234817429022)"  >
<path style="stroke: none; stroke-width: 0; stroke-dasharray: none; stroke-linecap: butt; stroke-dashoffset: 0; stroke-linejoin: miter; stroke-miterlimit: 4; fill: rgb(174,174,174); fill-rule: nonzero; opacity: 0.27;"  transform=" translate(-49.9995, -49.9995)" d="M 50 100.083 C 22.383 100.083 -0.084 77.615 -0.084 50 C -0.084 22.383 22.383 -0.084 50 -0.084 c 27.616 0 50.083 22.468 50.083 50.084 C 100.083 77.615 77.615 100.083 50 100.083 z" stroke-linecap="round" />
</g>
<g transform="matrix(1.0348564097881252 -2.5347e-16 2.5347e-16 1.0348564097881252 147.11234817429 250.61234817429022)"  >
<path style="stroke: none; stroke-width: 0; stroke-dasharray: none; stroke-linecap: butt; stroke-dashoffset: 0; stroke-linejoin: miter; stroke-miterlimit: 4; fill: rgb(174,174,174); fill-rule: nonzero; opacity: 0.25;"  transform=" translate(-49.9995, -49.9995)" d="M 50 100.083 C 22.383 100.083 -0.084 77.615 -0.084 50 C -0.084 22.383 22.383 -0.084 50 -0.084 c 27.616 0 50.083 22.468 50.083 50.084 C 100.083 77.615 77.615 100.083 50 100.083 z" stroke-linecap="round" />
</g>
<g transform="matrix(0.9085253200526145 -2.2252e-16 2.2252e-16 0.9085253200526145 150.11234817428988 250.61234817429022)"  >
<path style="stroke: none; stroke-width: 0; stroke-dasharray: none; stroke-linecap: butt; stroke-dashoffset: 0; stroke-linejoin: miter; stroke-miterlimit: 4; fill: rgb(174,174,174); fill-rule: nonzero; opacity: 1;"  transform=" translate(-49.9995, -49.9995)" d="M 50 100.083 C 22.383 100.083 -0.084 77.615 -0.084 50 C -0.084 22.383 22.383 -0.084 50 -0.084 c 27.616 0 50.083 22.468 50.083 50.084 C 100.083 77.615 77.615 100.083 50 100.083 z" stroke-linecap="round" />
</g>
<g transform="matrix(0.5865289384321615 0 0 0.5865289384321615 150.1123481742899 250.61234817429022)"  >
<path style="stroke: none; stroke-width: 0; stroke-dasharray: none; stroke-linecap: butt; stroke-dashoffset: 0; stroke-linejoin: miter; stroke-miterlimit: 4; fill: rgb(242,242,242); fill-rule: nonzero; opacity: 1;"  transform=" translate(-50.004117559263626, -50.00048138909036)" d="m 65.516 9.7891 l 1.9766 2 h -0.003907 c 0.76172 0.79688 1.8516 1.1953 2.9492 1.0781 l 2.8828 -0.26172 c 1.5898 -0.15625 3.1758 0.33984 4.3945 1.3672 c 1.2227 1.0312 1.9766 2.5117 2.0898 4.1055 l 0.22266 2.7969 h 0.003906 c 0.035156 0.54297 0.19141 1.0703 0.46094 1.543 c 0.27344 0.46094 0.64844 0.85938 1.0938 1.1602 l 2.375 1.6562 h 0.003906 c 1.3164 0.90234 2.207 2.3008 2.4688 3.8789 c 0.14062 0.77344 0.125 1.5703 -0.046875 2.3398 c -0.17969 0.76953 -0.50781 1.4961 -0.96875 2.1406 l -1.6289 2.2812 c -0.65234 0.89062 -0.85547 2.0273 -0.55078 3.0859 l 0.75781 2.7969 c 0.21094 0.76172 0.26953 1.5547 0.17188 2.3359 c -0.10938 0.78516 -0.36719 1.5391 -0.76562 2.2227 c -0.39453 0.68359 -0.92188 1.2852 -1.5508 1.7656 c -0.62891 0.47656 -1.3438 0.82031 -2.1094 1.0117 l -2.7188 0.71484 c -0.52734 0.12891 -1.0156 0.37109 -1.4297 0.71875 c -0.41797 0.34766 -0.75 0.78516 -0.96875 1.2812 l -1.2188 2.6328 c -0.66406 1.4492 -1.8828 2.5742 -3.3828 3.1172 c -1.5 0.54297 -3.1562 0.45703 -4.5938 -0.23438 l -2.5352 -1.207 c -0.48828 -0.23047 -1.0234 -0.35938 -1.5664 -0.37109 c -0.54297 0.003906 -1.082 0.13281 -1.5703 0.36719 l -2.625 1.2305 c -1.4414 0.69141 -3.0977 0.76953 -4.5977 0.21875 c -1.5 -0.54688 -2.7109 -1.6836 -3.3594 -3.1406 l -1.1719 -2.5469 v -0.003906 c -0.4375 -1.0078 -1.3242 -1.7539 -2.3945 -2.0156 l -2.8008 -0.74609 v 0.003906 c -0.76172 -0.20312 -1.4766 -0.55078 -2.1055 -1.0234 c -0.625 -0.48438 -1.1484 -1.0859 -1.5352 -1.7734 c -0.39844 -0.68359 -0.65625 -1.4375 -0.76172 -2.2227 c -0.09375 -0.78125 -0.03125 -1.5781 0.18359 -2.3359 l 0.73828 -2.707 h -0.003906 c 0.31641 -1.0547 0.11719 -2.1992 -0.53516 -3.0859 l -1.668 -2.3711 c -0.45703 -0.64453 -0.78125 -1.3711 -0.95703 -2.1367 c -0.16797 -0.77344 -0.17969 -1.5664 -0.035156 -2.3438 c 0.12891 -0.77734 0.41406 -1.5234 0.83984 -2.1914 c 0.42969 -0.66016 0.98828 -1.2305 1.6367 -1.6719 l 2.3164 -1.5977 c 0.45312 -0.30078 0.82812 -0.70312 1.1055 -1.1719 c 0.26562 -0.46875 0.42578 -0.99609 0.46875 -1.5352 l 0.24219 -2.8867 c 0.12109 -1.5898 0.87891 -3.0664 2.1055 -4.0898 c 1.2266 -1.0273 2.8125 -1.5117 4.4023 -1.3477 l 2.7969 0.26172 c 0.53906 0.054688 1.0859 -0.007812 1.6016 -0.19141 c 0.50781 -0.1875 0.96484 -0.48828 1.3477 -0.875 l 2.0469 -2.0586 l -0.003906 0.003907 c 1.7227 -1.7148 4.3008 -2.2266 6.543 -1.3086 c 0.73047 0.30859 1.3867 0.76562 1.9375 1.3359 z m -43.578 52.367 h -5.9375 c -0.070312 0 -0.13672 0.03125 -0.18359 0.078125 c -0.054687 0.050781 -0.082031 0.11719 -0.082031 0.19141 v 25.105 c 0 0.070312 0.03125 0.13672 0.082031 0.17969 c 0.046875 0.050781 0.11328 0.082031 0.18359 0.085937 h 5.9375 c 0.070312 -0.003906 0.13672 -0.035156 0.1875 -0.085937 c 0.050781 -0.046876 0.078125 -0.11328 0.078125 -0.17969 v -25.109 c 0 -0.070313 -0.027344 -0.14062 -0.078125 -0.19141 c -0.050781 -0.046875 -0.11719 -0.078125 -0.1875 -0.074219 z m -5.9375 -2.3047 h 5.9375 c 0.67969 0 1.3359 0.26953 1.8164 0.75 c 0.48438 0.48438 0.75391 1.1367 0.75391 1.8203 v 1.8945 h 8.6172 c 0.67188 -0.83203 1.4375 -1.582 2.2852 -2.2344 c 3.8242 -3.0742 9.2695 -3.1016 13.125 -0.066406 c 0.88672 0.67188 1.6914 1.4414 2.3945 2.3008 h 9.5078 c 1.5195 0 2.9766 0.60547 4.0469 1.6836 c 0.42188 0.42188 0.77734 0.90625 1.0547 1.4375 l 12.289 -3.4922 v -0.003906 c 1.5898 -0.56641 3.3086 -0.67578 4.9609 -0.31641 c 1.3477 0.43359 2.4648 1.3906 3.1055 2.6523 c 0.75 1.2773 0.89062 2.8242 0.37891 4.2109 c -0.53516 1.4609 -1.5625 2.6836 -2.9062 3.4648 l -30.324 17.836 c -0.29297 0.20313 -0.66016 0.26172 -1 0.16016 l -15.824 -4.7852 h -11.711 v 0.36719 c 0 1.418 -1.1484 2.5742 -2.5703 2.5742 h -5.9375 c -1.418 -0.007813 -2.5664 -1.1562 -2.5703 -2.5703 v -25.113 c 0.003906 -1.418 1.1523 -2.5664 2.5703 -2.5703 z m 10.246 6.7695 h -1.7383 v 18.238 h 11.883 c 0.125 0 0.25 0.019531 0.37109 0.058594 l 15.473 4.6836 l 29.969 -17.629 c 0.87109 -0.5 1.543 -1.2891 1.8945 -2.2305 c 0.28516 -0.75781 0.21875 -1.6055 -0.19141 -2.3047 c -0.35938 -0.74609 -0.99219 -1.3164 -1.7734 -1.5977 c -1.2305 -0.23047 -2.5039 -0.12109 -3.6836 0.31641 l -12.289 3.4922 c 0.003906 0.11328 0.011719 0.22266 0.011719 0.33594 v 0.074219 c -0.015625 3.1641 -2.5742 5.7266 -5.7422 5.7422 h -20.738 h 0.003906 c -0.63672 0 -1.1523 -0.51953 -1.1523 -1.1562 s 0.51562 -1.1523 1.1523 -1.1523 h 20.738 h -0.003906 c 1.8984 0 3.4375 -1.5352 3.4375 -3.4336 c 0 -1.8984 -1.5391 -3.4336 -3.4375 -3.4336 h -10.055 c -0.35547 -0.003906 -0.69141 -0.17188 -0.91016 -0.45703 c -0.66016 -0.87109 -1.4336 -1.6523 -2.3047 -2.3125 c -3.0352 -2.418 -7.3438 -2.3945 -10.355 0.050781 c -0.80859 0.625 -1.5273 1.3555 -2.1406 2.1719 c -0.21094 0.33594 -0.58203 0.54297 -0.98047 0.54297 h -7.4414 z m 44.234 -32.25 c 2.2422 0.003906 4.1719 1.5898 4.6055 3.7891 c 0.43359 2.2031 -0.74609 4.4023 -2.8203 5.2578 c -2.0703 0.85938 -4.4609 0.13281 -5.707 -1.7344 c -1.2461 -1.8633 -1 -4.3516 0.58594 -5.9375 c 0.88281 -0.88281 2.0859 -1.3789 3.3359 -1.375 z m 1.7031 3.0078 c -0.94141 -0.9375 -2.4648 -0.9375 -3.4062 0 c -0.9375 0.94141 -0.9375 2.4609 0 3.4023 c 0.94141 0.94141 2.4648 0.94141 3.4062 0 c 0.9375 -0.9375 0.9375 -2.4648 0 -3.4023 z m -5.7305 -15.672 c 0.15234 -0.26172 0.40234 -0.45703 0.69531 -0.53516 c 0.29297 -0.078125 0.60547 -0.039063 0.86719 0.11328 c 0.55078 0.31641 0.73828 1.0156 0.42578 1.5625 l -12.336 21.371 c -0.31641 0.55078 -1.0156 0.73828 -1.5664 0.42578 c -0.55078 -0.31641 -0.74219 -1.0195 -0.42578 -1.5664 z m -14.375 0.17188 c 2.2539 -0.003906 4.1953 1.5859 4.6367 3.7969 c 0.44141 2.207 -0.73828 4.4219 -2.8203 5.2852 c -2.082 0.86719 -4.4805 0.14062 -5.7344 -1.7344 c -1.2539 -1.8711 -1.0078 -4.3711 0.58594 -5.9648 c 0.87891 -0.88672 2.082 -1.3867 3.332 -1.3828 z m 1.7031 3.0078 c -0.81641 -0.81641 -2.0977 -0.94531 -3.0586 -0.30469 c -0.96484 0.64062 -1.3398 1.8711 -0.89844 2.9375 c 0.44531 1.0703 1.5781 1.6758 2.7148 1.4492 c 1.1328 -0.22656 1.9492 -1.2227 1.9453 -2.3789 c 0 -0.63672 -0.25391 -1.25 -0.70312 -1.7031 z m 12.07 -11.496 l -1.9727 -2 h -0.003906 c -0.67969 -0.70703 -1.6211 -1.1094 -2.6055 -1.1094 c -0.98047 -0.003906 -1.9219 0.39453 -2.6055 1.1016 l -2.0391 2.0508 v 0.003906 c -1.2461 1.2812 -3.0117 1.918 -4.7891 1.7305 l -2.7969 -0.26172 c -0.48437 -0.054688 -0.97656 -0.007812 -1.4414 0.13672 c -0.92969 0.30469 -1.707 0.95312 -2.1719 1.8164 c -0.22266 0.42969 -0.35547 0.90234 -0.38672 1.3867 l -0.25 2.8867 c -0.125 1.7852 -1.0703 3.4141 -2.5586 4.4102 l -2.3164 1.5977 v -0.003906 c -0.40234 0.27344 -0.74609 0.62109 -1.0117 1.0312 c -0.25781 0.40625 -0.42969 0.86328 -0.50781 1.3398 c -0.19922 0.96484 0.023438 1.9688 0.60938 2.7617 l 1.668 2.3711 h -0.003906 c 1.0508 1.4453 1.3711 3.2969 0.87109 5.0117 l -0.74609 2.7148 c -0.13281 0.46484 -0.17188 0.95312 -0.11328 1.4336 c 0.0625 0.48438 0.22656 0.94922 0.47656 1.3711 c 0.23438 0.42188 0.55078 0.79297 0.93359 1.0938 c 0.38672 0.28906 0.82812 0.5 1.3008 0.625 l 2.8008 0.73828 c 1.7344 0.43359 3.1719 1.6484 3.8945 3.2852 l 1.1758 2.5586 c 0.40234 0.89844 1.1523 1.5898 2.0781 1.918 c 0.91406 0.35938 1.9414 0.3125 2.8242 -0.125 l 2.625 -1.2305 c 1.6094 -0.77344 3.4805 -0.76953 5.0898 0.007813 l 2.5352 1.207 v -0.003906 c 0.4375 0.21484 0.91016 0.33594 1.3945 0.36719 c 0.48438 0.023438 0.97266 -0.054687 1.4258 -0.23047 c 0.93359 -0.30859 1.6914 -1.0039 2.0781 -1.9102 l 1.2227 -2.6328 v 0.003906 c 0.73438 -1.6328 2.1758 -2.8359 3.9102 -3.2656 l 2.7188 -0.71094 v 0.003906 c 0.95703 -0.22656 1.7734 -0.84766 2.2461 -1.7148 c 0.25 -0.41406 0.41016 -0.87891 0.47656 -1.3594 c 0.058593 -0.48047 0.023437 -0.97266 -0.10938 -1.4414 l -0.75781 -2.7969 c -0.48828 -1.7188 -0.15625 -3.5664 0.89844 -5.0117 l 1.625 -2.293 c 0.28125 -0.39453 0.48828 -0.83594 0.60156 -1.3047 c 0.10156 -0.48047 0.10938 -0.97266 0.019531 -1.4492 c -0.078124 -0.48047 -0.25 -0.9375 -0.50781 -1.3477 c -0.26172 -0.41016 -0.60547 -0.76172 -1.0039 -1.0312 l -2.3828 -1.6562 v 0.003906 c -0.72656 -0.50391 -1.332 -1.1602 -1.7734 -1.9219 c -0.4375 -0.76562 -0.69922 -1.6211 -0.76172 -2.5 l -0.23047 -2.8008 v -0.003906 c -0.058594 -0.98047 -0.52734 -1.8906 -1.293 -2.5039 c -0.36719 -0.32031 -0.79297 -0.55859 -1.2539 -0.70312 c -0.46484 -0.14844 -0.95703 -0.19531 -1.4414 -0.14844 l -2.8906 0.26172 v -0.003907 c -1.7773 0.18359 -3.5391 -0.46484 -4.7773 -1.7539 z" stroke-linecap="round" />
</g>
<g transform="matrix(1 0 0 1 361.67489883838755 252.87134817429023)" style=""  ><path fill="#AEAEAE" opacity="1" d="M-124.34-33.30C-133.42-33.30-138.40-28.33-138.40-20.61C-138.40-12.89-133.42-7.92-124.34-7.92C-116.10-7.92-111.64-12.38-111.64-16.49C-111.64-17.35-112.16-17.87-113.02-17.87L-117.30-17.87C-118.33-17.87-118.88-17.35-119.36-16.49C-120.22-14.95-121.59-13.58-124.34-13.58C-128.11-13.58-130.51-15.98-130.51-20.61C-130.51-25.24-128.11-27.64-124.34-27.64C-121.76-27.64-120.56-26.44-119.70-25.07C-119.19-24.21-118.68-23.70-117.65-23.70L-113.36-23.70C-112.50-23.70-111.99-24.21-111.99-25.07C-111.99-29.01-116.27-33.30-124.34-33.30Z"/><path fill="#AEAEAE" opacity="1" d="M-94.84-13.58C-98.61-13.58-101.01-15.98-101.01-20.61C-101.01-25.24-98.61-27.64-94.84-27.64C-91.06-27.64-88.66-25.24-88.66-20.61C-88.66-15.98-91.06-13.58-94.84-13.58ZM-94.84-33.30C-103.93-33.30-108.90-28.33-108.90-20.61C-108.90-12.89-103.93-7.92-94.84-7.92C-85.75-7.92-80.77-12.89-80.77-20.61C-80.77-28.33-85.75-33.30-94.84-33.30Z"/><path fill="#AEAEAE" opacity="1" d="M-58.10-8.60C-57.07-8.60-56.42-9.29-56.22-9.80L-51.62-21.12L-51.28-21.12L-51.28-9.80C-51.28-9.12-50.76-8.60-50.08-8.60L-44.93-8.60C-44.24-8.60-43.73-9.12-43.73-9.80L-43.73-31.41C-43.73-32.10-44.24-32.61-44.93-32.61L-52.13-32.61C-53.16-32.61-53.81-31.93-54.02-31.41L-60.02-16.84L-60.37-16.84L-66.37-31.41C-66.57-31.93-67.23-32.61-68.25-32.61L-75.46-32.61C-76.14-32.61-76.66-32.10-76.66-31.41L-76.66-9.80C-76.66-9.12-76.14-8.60-75.46-8.60L-70.31-8.60C-69.63-8.60-69.11-9.12-69.11-9.80L-69.11-21.12L-68.77-21.12L-64.14-9.80C-63.93-9.29-63.28-8.60-62.25-8.60Z"/><path fill="#AEAEAE" opacity="1" d="M-13.55-23.87C-13.55-28.84-17.32-32.61-25.38-32.61L-37.38-32.61C-38.07-32.61-38.59-32.10-38.59-31.41L-38.59-9.80C-38.59-9.12-38.07-8.60-37.38-8.60L-32.24-8.60C-31.55-8.60-31.04-9.12-31.04-9.80L-31.04-15.12L-25.38-15.12C-17.32-15.12-13.55-18.89-13.55-23.87ZM-31.04-20.61L-31.04-27.13L-25.38-27.13C-22.81-27.13-21.44-25.75-21.44-23.87C-21.44-21.98-22.81-20.61-25.38-20.61Z"/><path fill="#AEAEAE" opacity="1" d="M10.12-19.24C10.12-19.24 14.75-20.27 14.75-24.73C14.75-29.01 11.15-32.61 3.60-32.61L-8.92-32.61C-9.60-32.61-10.12-32.10-10.12-31.41L-10.12-9.80C-10.12-9.12-9.60-8.60-8.92-8.60L-3.77-8.60C-3.08-8.60-2.57-9.12-2.57-9.80L-2.57-16.84L1.89-16.84C3.78-16.84 4.43-16.15 4.98-15.12L7.89-9.80C8.27-9.12 8.75-8.60 10.12-8.60L15.44-8.60C16.29-8.60 16.57-9.29 16.29-9.80L13.38-15.12C11.66-18.21 10.12-18.89 10.12-18.89ZM-2.57-22.32L-2.57-27.13L3.60-27.13C5.83-27.13 6.86-26.10 6.86-24.73C6.86-23.35 5.83-22.32 3.60-22.32Z"/><path fill="#AEAEAE" opacity="1" d="M38.11-9.80C38.38-9.12 38.97-8.60 39.65-8.60L45.48-8.60C46.17-8.60 46.65-9.12 46.34-9.80L36.74-31.45C36.43-32.13 35.88-32.61 35.19-32.61L28.16-32.61C27.48-32.61 26.93-32.10 26.62-31.41L17.02-9.80C16.71-9.12 17.19-8.60 17.87-8.60L23.36-8.60C24.05-8.60 24.63-9.12 24.90-9.80L26.10-12.89L36.91-12.89ZM31.42-25.41L31.76-25.41L34.51-18.55L28.51-18.55Z"/><path fill="#AEAEAE" opacity="1" d="M-136.17 30.15L-125.36 30.15C-116.10 30.15-111.30 25.35-111.30 18.15C-111.30 10.95-116.10 6.14-125.36 6.14L-136.17 6.14C-136.85 6.14-137.37 6.66-137.37 7.35L-137.37 28.95C-137.37 29.64-136.85 30.15-136.17 30.15ZM-129.82 24.67L-129.82 11.63L-125.36 11.63C-121.42 11.63-119.19 13.86-119.19 18.15C-119.19 22.44-121.42 24.67-125.36 24.67Z"/><path fill="#AEAEAE" opacity="1" d="M-83.86 7.35C-83.86 6.66-84.38 6.14-85.06 6.14L-105.98 6.14C-106.67 6.14-107.19 6.66-107.19 7.35L-107.19 28.95C-107.19 29.64-106.67 30.15-105.98 30.15L-85.06 30.15C-84.38 30.15-83.86 29.64-83.86 28.95L-83.86 25.52C-83.86 24.84-84.38 24.32-85.06 24.32L-99.64 24.32L-99.64 20.89L-88.83 20.89C-88.15 20.89-87.63 20.38-87.63 19.69L-87.63 16.26C-87.63 15.58-88.15 15.06-88.83 15.06L-99.64 15.06L-99.64 11.98L-85.06 11.98C-84.38 11.98-83.86 11.46-83.86 10.78Z"/><path fill="#AEAEAE" opacity="1" d=""/><path fill="#AEAEAE" opacity="1" d="M-47.16 7.35C-47.16 6.66-47.67 6.14-48.36 6.14L-70.31 6.14C-71.00 6.14-71.51 6.66-71.51 7.35L-71.51 10.78C-71.51 11.46-71.00 11.98-70.31 11.98L-63.11 11.98L-63.11 28.95C-63.11 29.64-62.60 30.15-61.91 30.15L-56.76 30.15C-56.08 30.15-55.56 29.64-55.56 28.95L-55.56 11.98L-48.36 11.98C-47.67 11.98-47.16 11.46-47.16 10.78Z"/><path fill="#AEAEAE" opacity="1" d="M-31.73 25.18C-35.50 25.18-37.90 22.78-37.90 18.15C-37.90 13.52-35.50 11.12-31.73 11.12C-27.95 11.12-25.55 13.52-25.55 18.15C-25.55 22.78-27.95 25.18-31.73 25.18ZM-31.73 5.46C-40.81 5.46-45.79 10.43-45.79 18.15C-45.79 25.87-40.81 30.84-31.73 30.84C-22.64 30.84-17.66 25.87-17.66 18.15C-17.66 10.43-22.64 5.46-31.73 5.46Z"/><path fill="#AEAEAE" opacity="1" d="M-12.35 30.15L-1.54 30.15C7.72 30.15 12.52 25.35 12.52 18.15C12.52 10.95 7.72 6.14-1.54 6.14L-12.35 6.14C-13.03 6.14-13.55 6.66-13.55 7.35L-13.55 28.95C-13.55 29.64-13.03 30.15-12.35 30.15ZM-6.00 24.67L-6.00 11.63L-1.54 11.63C2.40 11.63 4.63 13.86 4.63 18.15C4.63 22.44 2.40 24.67-1.54 24.67Z"/><path fill="#AEAEAE" opacity="1" d="M29.67 25.18C25.90 25.18 23.50 22.78 23.50 18.15C23.50 13.52 25.90 11.12 29.67 11.12C33.44 11.12 35.85 13.52 35.85 18.15C35.85 22.78 33.44 25.18 29.67 25.18ZM29.67 5.46C20.58 5.46 15.61 10.43 15.61 18.15C15.61 25.87 20.58 30.84 29.67 30.84C38.76 30.84 43.73 25.87 43.73 18.15C43.73 10.43 38.76 5.46 29.67 5.46Z"/></g></svg>